<svg width="34" height="34" viewBox="0 0 34 34" fill="none" xmlns="http://www.w3.org/2000/svg">
<g clip-path="url(#clip0_246_796)">
<path d="M8.30078 1.56055C7.15195 1.73984 5.82383 2.28437 4.8543 2.96836C4.61523 3.14101 4.14375 3.55273 3.81836 3.87812C2.86875 4.83437 2.23125 5.88359 1.82617 7.17188C1.46094 8.34727 1.46094 8.31406 1.46094 17C1.46094 25.759 1.46094 25.666 1.85273 26.9012C2.25781 28.1562 2.89531 29.1988 3.85156 30.1484C4.80117 31.1047 5.84375 31.7422 7.09883 32.1473C8.26094 32.5191 8.57305 32.5391 13.3344 32.5391H17.6773L17.8699 32.3465L18.0625 32.1539V26.5027V20.8516L17.8699 20.6391L17.6773 20.4199L16.0105 20.4L14.3438 20.3801V18.9258V17.4648H15.9973C17.6574 17.4648 17.6574 17.4648 17.8434 17.3055L18.0293 17.1461L18.0625 14.3637C18.1023 11.3754 18.1156 11.3023 18.4809 10.6715C18.6867 10.3195 19.2578 9.78164 19.6762 9.5293C20.5594 9.01797 21.7414 8.7125 23.1094 8.65273C23.8398 8.61953 25.0949 8.69922 25.4535 8.80547C25.5531 8.83867 25.5664 8.96484 25.5664 10.1934V11.548L24.059 11.568L22.5449 11.5879L22.1797 11.7937C21.5621 12.1457 21.2102 12.8164 21.1703 13.7129C21.1637 13.932 21.1637 14.7754 21.1703 15.5922L21.1836 17.0797L21.3762 17.2723L21.5688 17.4648H23.375H25.1813L25.1414 17.6441C25.1215 17.7504 25.0285 18.3215 24.9355 18.9258C24.8426 19.5301 24.7496 20.1012 24.7297 20.2008L24.6898 20.3867H23.2023C21.6219 20.3867 21.4094 20.4199 21.25 20.7121C21.157 20.8914 21.157 32.0277 21.25 32.207C21.4227 32.5258 21.5023 32.5391 23.3086 32.5391C25.2742 32.5391 25.9582 32.4594 27.0141 32.1074C29.8895 31.1445 31.9879 28.641 32.4395 25.6395C32.5855 24.6965 32.5855 9.30351 32.4395 8.36055C31.9148 4.86094 29.1457 2.08516 25.6527 1.56055C24.743 1.42109 9.18398 1.42109 8.30078 1.56055ZM26.1309 3.0082C28.5215 3.65898 30.3344 5.47852 30.9984 7.86914L31.1777 8.5332V17V25.4668L30.9984 26.1309C30.3344 28.5281 28.5016 30.3609 26.1309 30.9852C25.5332 31.1445 25.3141 31.1645 23.9926 31.1977L22.5117 31.2242V26.4695V21.7148H23.9992C25.3938 21.7148 25.4934 21.7082 25.6527 21.5754C25.8852 21.3961 25.9184 21.2766 26.2969 18.866C26.5957 16.9535 26.6156 16.7676 26.5293 16.5551C26.3633 16.1699 26.1973 16.1367 24.2383 16.1367H22.5117V15.1672C22.5117 14.6359 22.4852 14.2176 22.452 14.2375C22.4254 14.2574 22.4387 14.025 22.4852 13.7262C22.6246 12.8562 22.5516 12.8828 24.6434 12.8828C26.4762 12.8828 26.6688 12.8562 26.8281 12.5574C26.868 12.4711 26.8945 11.6145 26.8945 10.2398C26.8945 8.13477 26.8879 8.04844 26.7551 7.88242C26.5426 7.60352 25.5465 7.39766 24.0723 7.33125C20.7121 7.17188 18.016 8.37383 17.1063 10.4457C16.7809 11.1695 16.7344 11.6344 16.7344 13.9785V16.1367H15.1738C13.5137 16.1367 13.2348 16.1766 13.0887 16.4555C13.0422 16.5484 13.0156 17.3918 13.0156 18.959V21.3297L13.2082 21.5223L13.4008 21.7148H15.0676H16.7344V26.4629V31.2176L12.6371 31.1977L8.5332 31.1711L7.8957 30.9984C5.24609 30.2746 3.34688 28.216 2.89531 25.573C2.80234 25.0219 2.78906 24.0125 2.78906 17C2.78906 9.9875 2.80234 8.97812 2.89531 8.42695C3.38008 5.59805 5.57148 3.39336 8.40039 2.89531C8.84531 2.81562 10.3063 2.80234 17.1992 2.80898L25.4668 2.82227L26.1309 3.0082Z" fill="white" stroke="white"/>
</g>
<defs>
<clipPath id="clip0_246_796">
<rect width="34" height="34" fill="white"/>
</clipPath>
</defs>
</svg>
