<svg width="140" height="23" viewBox="0 0 140 23" fill="none" xmlns="http://www.w3.org/2000/svg">
<g clip-path="url(#clip0_246_842)">
<path d="M12.4584 19.1924C12.1003 18.9754 11.6512 18.9754 11.293 19.1925L5.80027 22.5217C4.94891 23.0377 3.89643 22.2743 4.12266 21.3048L5.57888 15.0641C5.67348 14.6587 5.53631 14.2342 5.22236 13.9608L0.387497 9.75038C-0.361417 9.09819 0.0411876 7.86631 1.03072 7.78228L7.40235 7.24121C7.81727 7.20597 8.17873 6.9443 8.34176 6.56113L10.8423 0.684109C11.2304 -0.228037 12.5233 -0.228036 12.9114 0.68411L15.4119 6.56113C15.5749 6.9443 15.9364 7.20597 16.3513 7.24121L22.723 7.78228C23.7125 7.86631 24.1151 9.09819 23.3662 9.75038L18.5313 13.9608C18.2174 14.2342 18.0802 14.6587 18.1748 15.0641L19.6311 21.3052C19.8573 22.2746 18.805 23.0381 17.9536 22.5222L12.4584 19.1924Z" fill="#FFC500"/>
</g>
<g clip-path="url(#clip1_246_842)">
<path d="M41.4906 19.1924C41.1325 18.9754 40.6834 18.9754 40.3253 19.1925L34.8325 22.5217C33.9811 23.0377 32.9287 22.2743 33.1549 21.3048L34.6111 15.0641C34.7057 14.6587 34.5685 14.2342 34.2546 13.9608L29.4197 9.75038C28.6708 9.09819 29.0734 7.86631 30.0629 7.78228L36.4346 7.24121C36.8495 7.20597 37.211 6.9443 37.374 6.56113L39.8745 0.684109C40.2626 -0.228037 41.5555 -0.228036 41.9436 0.68411L44.4441 6.56113C44.6072 6.9443 44.9686 7.20597 45.3835 7.24121L51.7552 7.78228C52.7447 7.86631 53.1473 9.09819 52.3984 9.75038L47.5635 13.9608C47.2496 14.2342 47.1124 14.6587 47.207 15.0641L48.6633 21.3052C48.8895 22.2746 47.8372 23.0381 46.9858 22.5222L41.4906 19.1924Z" fill="#FFC500"/>
</g>
<g clip-path="url(#clip2_246_842)">
<path d="M70.5229 19.1924C70.1647 18.9754 69.7156 18.9754 69.3575 19.1925L63.8647 22.5217C63.0134 23.0377 61.9609 22.2743 62.1871 21.3048L63.6433 15.0641C63.7379 14.6587 63.6008 14.2342 63.2868 13.9608L58.452 9.75038C57.703 9.09819 58.1056 7.86631 59.0952 7.78228L65.4668 7.24121C65.8817 7.20597 66.2432 6.9443 66.4062 6.56113L68.9068 0.684109C69.2949 -0.228037 70.5877 -0.228036 70.9758 0.68411L73.4764 6.56113C73.6394 6.9443 74.0008 7.20597 74.4158 7.24121L80.7874 7.78228C81.7769 7.86631 82.1795 9.09819 81.4306 9.75038L76.5958 13.9608C76.2818 14.2342 76.1446 14.6587 76.2392 15.0641L77.6956 21.3052C77.9218 22.2746 76.8694 23.0381 76.0181 22.5222L70.5229 19.1924Z" fill="#FFC500"/>
</g>
<g clip-path="url(#clip3_246_842)">
<path d="M99.5552 19.1924C99.1971 18.9754 98.748 18.9754 98.3898 19.1925L92.8971 22.5217C92.0457 23.0377 90.9932 22.2743 91.2195 21.3048L92.6757 15.0641C92.7703 14.6587 92.6331 14.2342 92.3192 13.9608L87.4843 9.75038C86.7354 9.09819 87.138 7.86631 88.1275 7.78228L94.4992 7.24121C94.9141 7.20597 95.2755 6.9443 95.4386 6.56113L97.9391 0.684109C98.3272 -0.228037 99.6201 -0.228036 100.008 0.68411L102.509 6.56113C102.672 6.9443 103.033 7.20597 103.448 7.24121L109.82 7.78228C110.809 7.86631 111.212 9.09819 110.463 9.75038L105.628 13.9608C105.314 14.2342 105.177 14.6587 105.272 15.0641L106.728 21.3052C106.954 22.2746 105.902 23.0381 105.05 22.5222L99.5552 19.1924Z" fill="#FFC500"/>
</g>
<g clip-path="url(#clip4_246_842)">
<path d="M128.587 19.1924C128.229 18.9754 127.78 18.9754 127.422 19.1925L121.929 22.5217C121.078 23.0377 120.025 22.2743 120.252 21.3048L121.708 15.0641C121.803 14.6587 121.665 14.2342 121.351 13.9608L116.517 9.75038C115.768 9.09819 116.17 7.86631 117.16 7.78228L123.531 7.24121C123.946 7.20597 124.308 6.9443 124.471 6.56113L126.971 0.684109C127.359 -0.228037 128.652 -0.228036 129.04 0.68411L131.541 6.56113C131.704 6.9443 132.065 7.20597 132.48 7.24121L138.852 7.78228C139.842 7.86631 140.244 9.09819 139.495 9.75038L134.66 13.9608C134.346 14.2342 134.209 14.6587 134.304 15.0641L135.76 21.3052C135.986 22.2746 134.934 23.0381 134.083 22.5222L128.587 19.1924Z" fill="#FFC500"/>
</g>
<defs>
<clipPath id="clip0_246_842">
<rect width="23.7537" height="22.7639" fill="white"/>
</clipPath>
<clipPath id="clip1_246_842">
<rect width="23.7537" height="22.7639" fill="white" transform="translate(29.0322)"/>
</clipPath>
<clipPath id="clip2_246_842">
<rect width="23.7537" height="22.7639" fill="white" transform="translate(58.0645)"/>
</clipPath>
<clipPath id="clip3_246_842">
<rect width="23.7537" height="22.7639" fill="white" transform="translate(87.0968)"/>
</clipPath>
<clipPath id="clip4_246_842">
<rect width="23.7537" height="22.7639" fill="white" transform="translate(116.129)"/>
</clipPath>
</defs>
</svg>
