<svg width="24" height="24" viewBox="0 0 32 32" fill="none" xmlns="http://www.w3.org/2000/svg">
<path d="M6.87656 0.0931664C5.08281 0.361916 3.66406 1.07442 2.37031 2.36817C1.03906 3.69942 0.314062 5.18692 0.0703125 7.05567C-0.0234375 7.78691 -0.0234375 24.2119 0.0703125 24.9432C0.314062 26.8119 1.03906 28.2994 2.37031 29.6307C3.70156 30.9619 5.18906 31.6869 7.05781 31.9307C7.78906 32.0244 24.2141 32.0244 24.9453 31.9307C26.8141 31.6869 28.3016 30.9619 29.6328 29.6307C30.9641 28.2994 31.6891 26.8119 31.9328 24.9432C32.0266 24.2119 32.0266 7.78691 31.9328 7.05567C31.6891 5.18692 30.9641 3.69942 29.6328 2.36817C28.3016 1.03692 26.8141 0.311916 24.9453 0.0681667C24.1453 -0.0380821 7.58281 -0.0130844 6.87656 0.0931664ZM25.6078 2.91817C26.3141 3.16192 26.4703 3.24317 27.0516 3.64317C27.9766 4.28067 28.7078 5.27442 29.0766 6.39317L29.2828 7.03067V15.9994C29.2828 24.5807 29.2766 24.9869 29.1641 25.3432C28.7453 26.6994 28.0203 27.7057 26.9516 28.4307C26.4891 28.7432 26.0891 28.9244 25.4391 29.1307L24.9703 29.2807H16.0016H7.03281L6.39531 29.0744C4.64531 28.4994 3.42031 27.2182 2.83906 25.3432C2.72656 24.9869 2.72031 24.5807 2.72031 15.9994C2.72031 7.41817 2.72656 7.01192 2.83906 6.65567C3.28281 5.23067 4.05781 4.19316 5.21406 3.46817C5.70156 3.16192 6.53906 2.83692 7.05781 2.74942C7.21406 2.72442 11.3266 2.70567 16.1891 2.71192L25.0328 2.71817L25.6078 2.91817Z" fill="#2658AB"/>
<path d="M24.2516 5.39935C23.8078 5.49935 23.5516 5.63685 23.2516 5.9431C22.8453 6.36185 22.7203 6.6931 22.7203 7.3431C22.7203 7.8306 22.7453 7.94935 22.8891 8.2181C23.2328 8.8681 23.8141 9.24935 24.5391 9.29935C25.0703 9.3306 25.3516 9.2556 25.7953 8.9556C27.0391 8.1181 26.8953 6.21185 25.5453 5.5681C25.0828 5.34935 24.7141 5.29935 24.2516 5.39935Z" fill="#2658AB"/>
<path d="M14.9766 8.06816C11.9578 8.48691 9.38281 10.5869 8.44531 13.4119C8.12656 14.3744 8.03906 14.9307 8.03906 15.9994C8.03906 17.0682 8.12656 17.6244 8.44531 18.5932C9.20156 20.8557 11.1516 22.7994 13.4266 23.5619C14.3766 23.8744 14.9391 23.9619 16.0016 23.9619C17.0641 23.9619 17.6266 23.8744 18.5766 23.5619C20.8516 22.7994 22.8016 20.8557 23.5578 18.5932C23.8766 17.6244 23.9641 17.0682 23.9641 15.9994C23.9641 14.5994 23.6953 13.4557 23.0891 12.3119C21.9328 10.1432 19.9453 8.64942 17.5328 8.15567C16.9328 8.03067 15.5703 7.98067 14.9766 8.06816ZM17.6078 10.9307C18.2766 11.1494 18.4578 11.2369 18.9703 11.5807C20.0203 12.2869 20.7266 13.2682 21.1328 14.5619C21.2578 14.9682 21.2828 15.1619 21.2828 15.9994C21.2828 17.0307 21.2078 17.4119 20.8391 18.2307C20.3766 19.2807 19.2828 20.3744 18.2266 20.8432C17.4141 21.2057 17.0328 21.2807 16.0016 21.2807C14.9703 21.2807 14.5891 21.2057 13.7766 20.8432C12.7203 20.3744 11.6266 19.2807 11.1641 18.2307C10.7953 17.4119 10.7203 17.0307 10.7203 15.9994C10.7203 15.1619 10.7453 14.9682 10.8703 14.5619C11.0828 13.8869 11.2703 13.4932 11.6266 12.9744C12.3328 11.9494 13.3203 11.2432 14.5328 10.8869C15.1516 10.7057 15.2453 10.6932 16.1891 10.7182C16.9328 10.7369 17.1016 10.7619 17.6078 10.9307Z" fill="#2658AB"/>
</svg>
