<svg width="50" height="50" viewBox="0 0 50 50" fill="none" xmlns="http://www.w3.org/2000/svg">
<rect width="50" height="50" rx="25" fill="white"/>
<path d="M23.0156 8.4453C16.0546 9.29687 10.2656 14.5234 8.74996 21.3281C8.37496 23 8.24996 25.2969 8.43746 26.875C8.89059 30.5703 10.4609 33.9062 13.0078 36.5469C14.0703 37.6562 14.5156 37.8594 15.3359 37.625C16.1953 37.375 16.6796 36.5 16.4531 35.625C16.3671 35.2891 16.25 35.1172 15.7656 34.6172C13.7109 32.5312 12.5234 30.3516 11.9453 27.6172C11.7812 26.8594 11.7578 26.5547 11.7578 25C11.7578 23.4687 11.7812 23.1406 11.9375 22.4219C12.539 19.6562 13.6718 17.5703 15.6171 15.6172C17.1875 14.0547 18.6718 13.1094 20.6718 12.4219C26.5859 10.3828 33.1328 12.7344 36.3906 18.0625C38.4375 21.4062 38.8984 25.5156 37.6562 29.2344C37.4296 29.9062 36.7343 31.4844 36.664 31.4844C36.6484 31.4844 36.3203 31.2734 35.9296 31.0078C35.539 30.75 35.2109 30.5469 35.2031 30.5625C35.164 30.6094 34.7578 37.3594 34.789 37.3906C34.8046 37.4062 34.9375 37.375 35.0859 37.3125C35.6562 37.0703 40.8984 34.4531 40.914 34.3906C40.9296 34.3594 40.5859 34.1094 40.164 33.8359L39.3906 33.3359L39.7656 32.625C40.5312 31.1797 41.1171 29.4297 41.4609 27.5781C41.6562 26.5078 41.6562 23.3906 41.4609 22.3437C40.7343 18.4922 39.1015 15.4219 36.4453 12.9062C34 10.5937 31.1796 9.1953 27.6953 8.55468C26.8515 8.39843 23.9453 8.32812 23.0156 8.4453Z" fill="#2658AB"/>
<path d="M24.6485 16.7109C24.2501 16.8125 20.5157 18.7266 20.336 18.9219C19.7423 19.5547 19.797 20.6484 20.4454 21.2656C21.0157 21.8125 21.6485 21.8516 22.5704 21.4062C22.922 21.2344 23.2501 21.0938 23.2891 21.0938C23.3282 21.0938 23.3595 24.1484 23.3595 28.8594V36.625L22.2813 36.6562C21.2813 36.6797 21.1876 36.6953 20.8438 36.8984C20.1876 37.2812 19.8751 38.0703 20.0782 38.8125C20.1954 39.25 20.7032 39.7734 21.1407 39.9062C21.6016 40.0391 28.3985 40.0391 28.8595 39.9062C29.3048 39.7734 29.7891 39.2656 29.9141 38.8047C30.1251 38.0625 29.8126 37.2812 29.1563 36.8984C28.8126 36.6953 28.7188 36.6797 27.7188 36.6562L26.6407 36.625L26.6251 27.1875L26.6016 17.75L26.3673 17.4062C25.9766 16.8594 25.2423 16.5625 24.6485 16.7109Z" fill="#2658AB"/>
</svg>
