<svg width="50" height="50" viewBox="0 0 50 50" fill="none" xmlns="http://www.w3.org/2000/svg">
<rect width="50" height="50" rx="25" fill="white"/>
<path d="M24.4139 8.17971C21.203 8.28909 17.8983 9.42971 15.1952 11.375C14.8593 11.6094 14.5858 11.7969 14.578 11.7813C14.5702 11.7657 14.4686 11.2891 14.3593 10.7188C14.1249 9.51565 13.9452 9.1719 13.4218 8.91409C12.5155 8.47659 11.4999 8.94534 11.2421 9.9219C11.1639 10.2266 11.1952 10.6953 11.4764 13.2422C11.6561 14.875 11.8436 16.3047 11.8905 16.4219C12.0468 16.8282 12.1796 16.8594 15.1718 17.1953C18.3671 17.5547 18.8124 17.5547 19.2889 17.2422C19.9608 16.7969 20.1561 15.8907 19.7264 15.1953C19.4374 14.7344 19.1405 14.5703 18.2499 14.3907L17.5546 14.2578L17.9921 13.9688C18.6952 13.5 19.9686 12.8985 20.9374 12.5703C23.4999 11.7188 26.5077 11.7188 29.078 12.5782C33.0311 13.8985 36.0311 16.8594 37.3749 20.7735C37.9061 22.3047 37.9999 22.9375 38.0077 24.961C38.0077 26.6563 37.9921 26.8125 37.7811 27.7657C37.5858 28.6719 37.5702 28.8282 37.6483 29.1875C38.0155 30.8047 40.0546 31.1953 41.0155 29.836C41.6093 29.0157 41.9999 25.211 41.7186 23.0078C41.3436 19.9844 40.1561 17.0938 38.2889 14.6485C37.7889 13.9922 36.3202 12.5 35.6249 11.9297C32.4764 9.39065 28.4686 8.0469 24.4139 8.17971Z" fill="#3B6CBF"/>
<path d="M9.92177 19.4453C9.28114 19.6719 8.89052 20.1328 8.68739 20.9141C7.67958 24.7031 8.10927 28.8359 9.89833 32.4766C12.039 36.8359 16.0233 40.0703 20.7421 41.2891C22.1796 41.6562 23.328 41.8047 24.8827 41.8047C26.9218 41.8047 28.3515 41.5859 30.2265 40.9687C31.8749 40.4297 33.8827 39.3828 35.1015 38.4141C35.2655 38.2891 35.4061 38.1953 35.4218 38.2109C35.4296 38.2266 35.5311 38.7109 35.6405 39.2812C35.8749 40.5 36.0546 40.8281 36.6015 41.0937C37.3905 41.4766 38.2811 41.1484 38.6561 40.3281L38.8593 39.8828L38.5155 36.7969C38.3358 35.1016 38.1483 33.6328 38.1015 33.5391C37.9374 33.1719 37.7577 33.1328 34.828 32.8047C31.6405 32.4453 31.1874 32.4453 30.7108 32.7578C30.078 33.1797 29.8515 34.0781 30.2265 34.7422C30.5311 35.2812 30.8749 35.4531 32.1093 35.6797L32.453 35.7422L31.9452 36.0703C31.1093 36.5937 30.0311 37.1016 29.0624 37.4297C26.4999 38.2812 23.4921 38.2812 20.914 37.4219C16.4296 35.9219 13.1796 32.2891 12.1718 27.625C12.0233 26.9453 11.9999 26.5859 11.9921 25.0781C11.9921 23.4297 12.0077 23.25 12.2186 22.2266C12.4374 21.1562 12.4452 21.125 12.3202 20.7031C12.0077 19.6406 10.953 19.0859 9.92177 19.4453Z" fill="#3B6CBF"/>
</svg>
