
<svg className='plane' width="28" height="28" viewBox="0 0 28 28" fill="none" xmlns="http://www.w3.org/2000/svg">
<path d="M17.3314 27.6425C15.6443 27.6425 13.2566 26.4667 11.3692 20.8425L10.3398 17.7825L7.25145 16.7625C1.58949 14.8925 0.402771 12.5267 0.402771 10.855C0.402771 9.19751 1.58949 6.81751 7.25145 4.93334L19.3903 0.924176C22.4215 -0.0816574 24.9522 0.215842 26.5107 1.74584C28.0691 3.27584 28.3694 5.79751 27.3542 8.80084L23.308 20.8283C21.4063 26.4667 19.0186 27.6425 17.3314 27.6425ZM7.92345 6.95918C3.94864 8.27668 2.53315 9.83501 2.53315 10.855C2.53315 11.875 3.94864 13.4333 7.92345 14.7367L11.5265 15.9267C11.8411 16.0258 12.0984 16.2808 12.1985 16.5925L13.3995 20.1625C14.7149 24.1008 16.302 25.5033 17.3314 25.5033C18.3609 25.5033 19.9337 24.1008 21.2634 20.1625L25.3097 8.13501C26.0388 5.95334 25.9102 4.16834 24.9808 3.24751C24.0514 2.32668 22.2499 2.21334 20.0623 2.93584L7.92345 6.95918Z" fill="white"/>
<path d="M11.4552 17.4C11.1835 17.4 10.9119 17.3008 10.6974 17.0883C10.2828 16.6775 10.2828 15.9975 10.6974 15.5866L15.816 10.5008C16.2307 10.09 16.917 10.09 17.3316 10.5008C17.7462 10.9116 17.7462 11.5916 17.3316 12.0025L12.213 17.0883C12.0128 17.3008 11.7268 17.4 11.4552 17.4Z" fill="white"/>
</svg>
