<svg width="60" height="60" viewBox="0 0 60 60" fill="none" xmlns="http://www.w3.org/2000/svg">
<rect width="60" height="60" rx="30" fill="white"/>
<path d="M41.9629 9.70704C41.1621 9.85352 40.2832 10.3418 39.6875 10.9473C39.1993 11.4453 38.8575 12.041 36.4844 16.6309L33.8282 21.748L32.9688 21.8164C32.4903 21.8555 31.7286 22.002 31.2696 22.1484C29.6094 22.666 28.6621 23.3008 27.2168 24.8828C24.4629 27.8906 22.6954 29.5508 21.1621 30.5469C19.3457 31.7285 16.8067 32.7832 14.7461 33.2129C13.6036 33.4473 13.3594 33.5645 12.8418 34.1309C12.2071 34.8145 12.0508 35.791 12.4219 36.6211C12.8028 37.4512 15.3418 39.7949 18.2325 41.9629C22.3926 45.0879 26.4649 47.3926 30.586 48.9551C31.5918 49.3457 31.7969 49.3848 32.5391 49.3848C33.545 49.375 34.1016 49.1309 34.795 48.3887C35.6153 47.5098 37.92 43.5156 39.0821 40.9375C40.3418 38.1836 42.3829 32.7441 42.6661 31.416C42.8418 30.5859 42.793 29.0527 42.5586 28.1934C42.4707 27.8711 42.2266 27.2656 42.0215 26.8457L41.6504 26.084L44.2774 21.0352C45.7227 18.2617 46.9922 15.7227 47.1094 15.4004C47.2657 14.9316 47.295 14.6289 47.2657 13.8867C47.2364 13.0566 47.1875 12.8711 46.8653 12.1973C46.2403 10.8691 45.0489 9.95118 43.6329 9.69727C42.959 9.57032 42.6465 9.58008 41.9629 9.70704ZM43.6621 12.5195C44.336 12.8613 44.7168 13.5645 44.6192 14.2871C44.5899 14.5215 43.6329 16.4648 42.1485 19.3262C40.8204 21.8945 39.7266 24.0039 39.7071 24.0234C39.6973 24.043 39.5118 23.9453 39.3067 23.8184C39.0918 23.6816 38.3789 23.3008 37.7246 22.9785L36.543 22.3828L36.8946 21.6699C38.1446 19.1992 41.377 13.0273 41.5137 12.8711C41.9825 12.334 42.9883 12.168 43.6621 12.5195ZM35.127 24.7461C35.9766 25.0293 38.0079 26.123 38.545 26.6016C39.5313 27.4707 40.0879 28.7207 40.0879 30.0977C40.0879 30.8008 40.0293 31.084 39.7168 32.002C39.5118 32.5879 39.3164 33.1152 39.2676 33.1641C39.2188 33.2227 28.6914 27.8125 28.4473 27.5977C28.3985 27.5488 29.2676 26.5332 29.8047 26.0156C31.2403 24.6289 33.2911 24.1406 35.127 24.7461ZM30.5176 31.7188C36.5723 34.9023 38.252 35.7813 38.2813 35.8105C38.3496 35.8789 37.0411 38.9746 36.25 40.6152C34.9219 43.3594 32.9981 46.6309 32.6465 46.748C32.4707 46.8066 31.5625 46.4941 30.1954 45.918C29.795 45.752 29.3848 45.5859 29.2969 45.5566C29.1993 45.5273 29.1211 45.4883 29.1211 45.459C29.1211 45.4395 29.3946 45.0879 29.7364 44.668C30.9473 43.1836 31.6602 42.041 31.6602 41.582C31.6602 40.5762 30.4981 39.9219 29.6582 40.4395C29.4922 40.5371 29.0235 41.1133 28.6133 41.7285C28.2032 42.3438 27.5782 43.1445 27.2266 43.5254L26.6016 44.209L26.0743 43.9258C25.0196 43.3594 22.1875 41.543 22.1875 41.4355C22.1875 41.3965 22.4121 41.2012 22.6758 41.0059C23.2813 40.5469 23.5547 40.127 23.5547 39.6387C23.5547 39.1211 23.2911 38.7207 22.793 38.4863C22.2266 38.2031 21.875 38.291 21.0547 38.8965C20.6836 39.1699 20.2246 39.4727 20.0391 39.5703L19.6875 39.7461L18.584 38.8672C17.3438 37.8711 15.2246 35.957 15.2832 35.8887C15.3125 35.8691 15.8203 35.7227 16.4356 35.5566C19.7754 34.6875 23.0078 32.8711 25.5567 30.4492C26.045 29.9902 26.4453 29.6191 26.4649 29.6094C26.4844 29.6094 28.3106 30.5566 30.5176 31.7188Z" fill="#3B6CBF"/>
<path d="M15.7325 21.1426C14.17 21.9726 14.4239 24.2285 16.1427 24.7363C16.8067 24.9219 17.5587 24.6777 18.0665 24.1015C19.4435 22.5293 17.5782 20.166 15.7325 21.1426Z" fill="#3B6CBF"/>
<path d="M10.7325 26.9727C9.53135 27.334 9.01377 28.8867 9.7462 29.9219C10.6739 31.2402 12.6954 30.918 13.1544 29.3848C13.6036 27.8809 12.2267 26.5234 10.7325 26.9727Z" fill="#3B6CBF"/>
</svg>
